# AST/ASF file generated using VICON BodyLanguage
# -----------------------------------------------
:version 1.10
:name VICON
:units
  mass 1.0
  length 0.45
  angle deg
:documentation
   .ast/.asf automatically generated from VICON data using
   VICON BodyBuilder and BodyLanguage model FoxedUp or BRILLIANT.MOD
:root
   order TX TY TZ RX RY RZ
   axis XYZ
   position 0 0 0  
   orientation 0 0 0 
:bonedata
  begin
     id 1 
     name lhipjoint
     direction 0.646657 -0.683706 0.338203 
     length 2.4948 
     axis 0 0 0  XYZ
  end
  begin
     id 2 
     name lfemur
     direction 0.34202 -0.939693 0  
     length 6.79491  
     axis 0 0 20  XYZ
    dof rx ry rz
    limits (-160.0 20.0)
           (-70.0 70.0)
           (-60.0 70.0)
  end
  begin
     id 3 
     name ltibia
     direction 0.34202 -0.939693 0   
     length 7.56807   
     axis 0 0 20   XYZ
    dof rx
    limits (-10.0 170.0)
  end
  begin
     id 4 
     name lfoot
     direction 0.0679796 -0.186772 0.980048   
     length 2.53018   
     axis -90 7.62852e-016 20   XYZ
    dof rx rz
    limits (-45.0 90.0)
           (-70.0 20.0)
  end
  begin
     id 5 
     name ltoes
     direction 1.53625e-011 -4.21881e-011 1   
     length 1.26912   
     axis -90 7.62852e-016 20   XYZ
    dof rx
    limits (-90.0 20.0)
  end
  begin
     id 6 
     name rhipjoint
     direction -0.618868 -0.704065 0.348274   
     length 2.42265  
     axis 0 0 0  XYZ 
  end
  begin
     id 7 
     name rfemur
     direction -0.34202 -0.939693 0   
     length 6.73814   
     axis 0 0 -20   XYZ
    dof rx ry rz
    limits (-160.0 20.0)
           (-70.0 70.0)
           (-70.0 60.0)
  end
  begin
     id 8 
     name rtibia
     direction -0.34202 -0.939693 0   
     length 7.66799   
     axis 0 0 -20   XYZ
    dof rx
    limits (-10.0 170.0)
 end
 begin
     id 9 
     name rfoot
     direction -0.0727352 -0.199838 0.977125   
     length 2.57224  
     axis -90 -7.62852e-016 -20   XYZ
    dof rx rz
    limits (-45.0 90.0)
           (-20.0 70.0)
  end
  begin
     id 10 
     name rtoes
     direction -1.53501e-011 -4.21858e-011 1   
     length 1.28858   
     axis -90 -7.62852e-016 -20   XYZ
    dof rx
    limits (-90.0 20.0)
  end
  begin
     id 11 
     name lowerback
     direction -0.0172471 0.995767 -0.0902851   
     length 2.20206   
     axis 0 0 0   XYZ
    dof rx ry rz
    limits (-20.0 45.0)
           (-30.0 30.0)
           (-30.0 30.0)
  end
  begin
     id 12 
     name upperback
     direction -0.000110737 0.999714 0.0239043   
     length 2.19523   
     axis 0 0 0   XYZ
    dof rx ry rz
    limits (-20.0 45.0)
           (-30.0 30.0)
           (-30.0 30.0)
  end
  begin
     id 13 
     name thorax
     direction 0.00704869 0.997783 0.0661741   
     length 2.21977   
     axis 0 0 0   XYZ
    dof rx ry rz
    limits (-20.0 45.0)
           (-30.0 30.0)
           (-30.0 30.0)
  end
  begin
     id 14 
     name lowerneck
     direction -0.00407501 0.995527 0.0943846   
     length 1.83142   
     axis 0 0 0   XYZ
    dof rx ry rz
    limits (-20.0 45.0)
           (-30.0 30.0)
           (-30.0 30.0)
  end
  begin
     id 15 
     name upperneck
     direction 0.0640586 0.986486 -0.150807   
     length 1.84616   
     axis 0 0 0   XYZ
    dof rx ry rz
    limits (-20.0 45.0)
           (-30.0 30.0)
           (-30.0 30.0)
  end
  begin
     id 16
     name head
     direction 0.0188017 0.99791 -0.0618239  
     length 1.85932  
     axis 0 0 0   XYZ
    dof rx ry rz
    limits (-20.0 45.0)
           (-30.0 30.0)
           (-30.0 30.0)
  end
  begin
     id 17 
     name lclavicle
     direction 0.976074 0.206905 0.066852  
     length 3.81043  
     axis 0 0 0   XYZ
    dof ry rz
    limits (-20.0 10.0)
           (0.0 20.0)
  end
  begin
     id 18 
     name lhumerus
     direction 1 -4.48971e-011 1.86916e-027   
     length 5.37587   
     axis 180 -30 -90   XYZ
    dof rx ry rz
    limits (-60.0 90.0)
           (-90.0 90.0)
           (-90.0 90.0)
  end
  begin
     id 19
     name lradius
     direction 1 -4.48968e-011 1.69187e-027   
     length 3.35977   
     axis 180 -30 -90   XYZ
    dof rx
    limits (-10.0 170.0)
  end
  begin
     id 20
     name lwrist
     direction 1 -4.48968e-011 5.8978e-027   
     length 1.67988   
     axis -3.27506e-015 90 90   XYZ
    dof ry
    limits (-180.0 0.0)
 end
  begin
     id 21 
     name lhand
     direction 1 -4.49028e-011 1.18071e-026   
     length 0.561859   
     axis -7.52654e-015 90 90   XYZ
    dof rx rz
    limits (-90.0 90.0)
           (-45.0 45.0)
  end
  begin
     id 22 
     name lfingers
     direction 1 -4.48927e-011 2.35758e-026   
     length 0.452985   
     axis -1.50534e-014 90 90   XYZ
    dof rx
    limits (0.0 90.0)
  end
  begin
     id 23
     name lthumb
     direction 0.707107 -6.34898e-011 0.707107   
     length 0.650399   
     axis -90 45 5.69224e-014   XYZ
    dof rx rz
    limits (-45.0 45.0)
           (-45.0 45.0)
  end
  begin
     id 24 
     name rclavicle
     direction -0.988403 0.151789 0.00439714   
     length 3.6942  
     axis 0 0 0   XYZ 
    dof ry rz
    limits (-10.0 20.0)
           (-20.0 0.0)
  end
  begin
     id 25 
     name rhumerus
     direction -1 -4.48978e-011 1.62495e-027  
     length 5.22819   
     axis 180 30 90   XYZ
    dof rx ry rz
    limits (-90.0 60.0)
           (-90.0 90.0)
           (-90.0 90.0)
  end
  begin
     id 26 
     name rradius
     direction -1 -4.48961e-011 3.47796e-027   
     length 3.40764   
     axis 180 30 90   XYZ
    dof rx
    limits (-10.0 170.0)
  end
  begin
     id 27 
     name rwrist
     direction -1 -4.48949e-011 5.89602e-027   
     length 1.70382   
     axis -3.27506e-015 -90 -90   XYZ
    dof ry
    limits (-180.0 0.0)
  end
  begin
     id 28
     name rhand
     direction -1 -4.48977e-011 1.17973e-026   
     length 0.583255   
     axis -7.52654e-015 -90 -90   XYZ
    dof rx rz
    limits (-90.0 90.0)
           (-45.0 45.0)
  end
  begin
     id 29
     name rfingers
     direction -1 -4.49099e-011 2.36408e-026   
     length 0.470235   
     axis -1.50534e-014 -90 -90   XYZ
    dof rx
    limits (0.0 90.0)
  end
  begin
     id 30
     name rthumb
     direction -0.707107 -6.35011e-011 0.707107   
     length 0.675167   
     axis -90 -45 -5.69224e-014   XYZ
    dof rx rz
    limits (-45.0 45.0)
           (-45.0 45.0)
  end
:hierarchy
  begin
    root lhipjoint rhipjoint lowerback
    lhipjoint lfemur
    lfemur ltibia
    ltibia lfoot
    lfoot ltoes
    rhipjoint rfemur
    rfemur rtibia
    rtibia rfoot
    rfoot rtoes
    lowerback upperback
    upperback thorax
    thorax lowerneck lclavicle rclavicle
    lowerneck upperneck
    upperneck head
    lclavicle lhumerus
    lhumerus lradius
    lradius lwrist
    lwrist lhand lthumb
    lhand lfingers
    rclavicle rhumerus
    rhumerus rradius
    rradius rwrist
    rwrist rhand rthumb
    rhand rfingers
  end

#!OML:ASF G:\JayActor3\Patient Classification 1\Patient 1\Session 2\male.ASF
:FULLY-SPECIFIED
:DEGREES
96
root 47.2973 16.445 -6.50667 -162.633 -83.6942 160.395
lowerback -0.572219 -2.18553 -5.72946
upperback 4.66252 -2.81073 -0.254754
thorax 5.43278 -1.6785 2.78051
lowerneck -3.60241 -5.64696 -9.95796
upperneck 5.95302 -7.4906 7.55533
head 3.01532 -3.71333 3.58299
rclavicle 1.58407e-014 2.18663e-015
rhumerus -33.8715 5.98221 -87.5753
rradius 33.4897
rwrist -7.60915
rhand -21.5515 5.59053
rfingers 7.12502
rthumb 4.84181 -24.3341
lclavicle 1.58407e-014 2.18663e-015
lhumerus 32.8166 -45.9669 79.5644
lradius 130.67
lwrist 89.8877
lhand -23.2853 26.669
lfingers 7.12502
lthumb 3.16762 56.6252
rfemur -19.801 5.00205 12.8431
rtibia 53.3421
rfoot -17.9063 -1.13029
rtoes 6.8768
lfemur -6.76373 12.3457 -24.7622
ltibia 27.9578
lfoot -16.429 6.14897
ltoes -7.46093
97
root 47.2904 16.4444 -6.51556 -162.724 -83.6825 160.471
lowerback -0.573122 -2.17664 -5.70744
upperback 4.6615 -2.79867 -0.276747
thorax 5.42852 -1.6709 2.74613
lowerneck -3.70662 -5.72907 -9.98501
upperneck 6.01727 -7.59363 7.5705
head 3.06247 -3.76255 3.58231
rclavicle 1.81391e-014 2.127e-014
rhumerus -33.9397 5.87232 -87.5698
rradius 33.2376
rwrist -7.48948
rhand -21.5393 5.58631
rfingers 7.12502
rthumb 4.85365 -24.3381
lclavicle 1.81391e-014 2.127e-014
lhumerus 32.5483 -45.8923 79.7601
lradius 130.802
lwrist 89.2787
lhand -23.9239 26.7904
lfingers 7.12502
lthumb 2.55083 56.7549
rfemur -19.5056 5.12142 12.8741
rtibia 52.9413
rfoot -18.1335 -0.995682
rtoes 6.81318
lfemur -6.7135 12.238 -24.7328
ltibia 27.9654
lfoot -16.4765 6.25723
ltoes -7.47408
98
root 47.2838 16.4436 -6.52504 -162.805 -83.682 160.547
lowerback -0.584957 -2.16981 -5.68221
upperback 4.65789 -2.78881 -0.293667
thorax 5.42811 -1.66431 2.71473
lowerneck -3.81863 -5.80121 -10.0086
upperneck 6.10523 -7.68338 7.57731
head 3.11642 -3.80535 3.57867
rclavicle 4.09496e-014 -1.96797e-014
rhumerus -34.0096 5.77129 -87.5543
rradius 32.9878
rwrist -7.37621
rhand -21.5192 5.579
rfingers 7.12502
rthumb 4.87306 -24.345
lclavicle 4.09496e-014 -1.96797e-014
lhumerus 32.3034 -45.8089 79.9177
lradius 130.902
lwrist 88.504
lhand -24.512 26.8669
lfingers 7.12502
lthumb 1.9829 56.8375
rfemur -19.2041 5.21962 12.9062
rtibia 52.5227
rfoot -18.3631 -0.861031
rtoes 6.74475
lfemur -6.6806 12.1337 -24.6981
ltibia 27.9843
lfoot -16.527 6.34892
ltoes -7.48234
99
root 47.2774 16.4427 -6.53527 -162.891 -83.6915 160.641
lowerback -0.609332 -2.16145 -5.65178
upperback 4.64917 -2.77624 -0.307598
thorax 5.42909 -1.656 2.68335
lowerneck -3.93729 -5.8641 -10.0218
upperneck 6.2196 -7.76167 7.57722
head 3.17773 -3.84252 3.57138
rclavicle -2.79044e-014 4.96962e-015
rhumerus -34.0864 5.6696 -87.5302
rradius 32.7461
rwrist -7.27238
rhand -21.4871 5.56446
rfingers 7.12502
rthumb 4.90403 -24.3588
lclavicle -2.79044e-014 4.96962e-015
lhumerus 32.084 -45.7239 80.0366
lradius 130.962
lwrist 87.6264
lhand -25.048 26.8917
lfingers 7.12502
lthumb 1.46523 56.8665
rfemur -18.9038 5.296 12.9437
rtibia 52.0964
rfoot -18.5995 -0.730972
rtoes 6.68442
lfemur -6.66917 12.0384 -24.655
ltibia 28.0164
lfoot -16.5802 6.41635
ltoes -7.47847
100
root 47.2713 16.4418 -6.54647 -162.971 -83.7086 160.743
lowerback -0.654605 -2.15182 -5.62249
upperback 4.64024 -2.76056 -0.31691
thorax 5.44186 -1.64648 2.65677
lowerneck -4.06409 -5.91671 -10.0337
upperneck 6.35039 -7.82655 7.57937
head 3.24418 -3.87285 3.56483
rclavicle 1.52319e-014 -3.77691e-015
rhumerus -34.1601 5.56844 -87.4957
rradius 32.5133
rwrist -7.17374
rhand -21.4403 5.54566
rfingers 7.12502
rthumb 4.94924 -24.3765
lclavicle 1.52319e-014 -3.77691e-015
lhumerus 31.8968 -45.6297 80.1167
lradius 130.969
lwrist 86.7124
lhand -25.5239 26.8518
lfingers 7.12502
lthumb 1.00554 56.8292
rfemur -18.6083 5.35203 12.9864
rtibia 51.6674
rfoot -18.8461 -0.604114
rtoes 6.64742
lfemur -6.67925 11.9582 -24.6041
ltibia 28.0609
lfoot -16.6341 6.45798
ltoes -7.48339
101
root 47.2653 16.4409 -6.55873 -163.06 -83.7317 160.865
lowerback -0.711164 -2.13976 -5.59395
upperback 4.62739 -2.74091 -0.322336
thorax 5.45688 -1.63497 2.63457
lowerneck -4.19937 -5.96073 -10.0366
upperneck 6.49818 -7.8803 7.5771
head 3.31565 -3.89754 3.55568
rclavicle -1.7667e-014 1.59028e-015
rhumerus -34.239 5.46713 -87.4537
rradius 32.2958
rwrist -7.07993
rhand -21.3823 5.52169
rfingers 7.12502
rthumb 5.00523 -24.3992
lclavicle -1.7667e-014 1.59028e-015
lhumerus 31.7288 -45.5237 80.1676
lradius 130.921
lwrist 85.8193
lhand -25.9423 26.7426
lfingers 7.12502
lthumb 0.601478 56.7215
rfemur -18.3185 5.38955 13.0365
rtibia 51.2353
rfoot -19.1004 -0.478733
rtoes 6.65278
lfemur -6.70907 11.8934 -24.5441
ltibia 28.1167
lfoot -16.6861 6.4789
ltoes -7.50846
102
root 47.2596 16.4401 -6.57208 -163.15 -83.7612 160.996
lowerback -0.773451 -2.12562 -5.56897
upperback 4.61054 -2.71814 -0.322841
thorax 5.47115 -1.622 2.61959
lowerneck -4.33624 -5.99746 -10.0353
upperneck 6.64818 -7.92449 7.57383
head 3.38704 -3.9174 3.54602
rclavicle -3.60546e-014 -2.78299e-015
rhumerus -34.3223 5.36707 -87.4024
rradius 32.0927
rwrist -6.98889
rhand -21.3149 5.49987
rfingers 7.12502
rthumb 5.07028 -24.4195
lclavicle -3.60546e-014 -2.78299e-015
lhumerus 31.5719 -45.4016 80.1979
lradius 130.815
lwrist 84.9827
lhand -26.2835 26.5404
lfingers 7.12502
lthumb 0.271936 56.5199
rfemur -18.0338 5.41089 13.0933
rtibia 50.799
rfoot -19.3577 -0.353729
rtoes 6.72337
lfemur -6.75535 11.8381 -24.4766
ltibia 28.1813
lfoot -16.7344 6.48495
ltoes -7.54856
103
root 47.2544 16.4395 -6.5866 -163.263 -83.7947 161.154
lowerback -0.83099 -2.10752 -5.5449
upperback 4.58765 -2.6905 -0.319565
thorax 5.47616 -1.60633 2.60977
lowerneck -4.4738 -6.02736 -10.0258
upperneck 6.8017 -7.95984 7.56518
head 3.45831 -3.93286 3.53388
rclavicle 2.19906e-014 1.78906e-015
rhumerus -34.4168 5.26291 -87.3431
rradius 31.9057
rwrist -6.89629
rhand -21.2507 5.48155
rfingers 7.12502
rthumb 5.13227 -24.4363
lclavicle 2.19906e-014 1.78906e-015
lhumerus 31.4082 -45.2678 80.2156
lradius 130.653
lwrist 84.2068
lhand -26.5366 26.2037
lfingers 7.12502
lthumb 0.0274859 56.1834
rfemur -17.7527 5.41959 13.1585
rtibia 50.3576
rfoot -19.6124 -0.226398
rtoes 6.88024
lfemur -6.81226 11.7884 -24.3999
ltibia 28.2529
lfoot -16.7791 6.48496
ltoes -7.60623
104
root 47.2498 16.4389 -6.60228 -163.374 -83.8282 161.312
lowerback -0.879316 -2.08431 -5.52598
upperback 4.55887 -2.6566 -0.3141
thorax 5.46953 -1.58742 2.60608
lowerneck -4.61756 -6.05068 -10.0073
upperneck 6.96305 -7.98651 7.55168
head 3.53168 -3.94389 3.51912
rclavicle 3.05134e-014 3.77691e-015
rhumerus -34.519 5.14752 -87.2745
rradius 31.7309
rwrist -6.7952
rhand -21.1906 5.46835
rfingers 7.12502
rthumb 5.19028 -24.4481
lclavicle 3.05134e-014 3.77691e-015
lhumerus 31.2293 -45.1284 80.2214
lradius 130.44
lwrist 83.4575
lhand -26.7037 25.6981
lfingers 7.12502
lthumb -0.133898 55.6778
rfemur -17.4769 5.42 13.227
rtibia 49.9134
rfoot -19.8582 -0.097112
rtoes 7.09443
lfemur -6.87651 11.7394 -24.3193
ltibia 28.3284
lfoot -16.8207 6.4859
ltoes -7.67296
105
root 47.246 16.4383 -6.61904 -163.518 -83.8593 161.501
lowerback -0.917208 -2.05555 -5.50827
upperback 4.52764 -2.61604 -0.307347
thorax 5.45388 -1.56504 2.60533
lowerneck -4.77768 -6.06804 -9.96827
upperneck 7.14159 -8.00474 7.52138
head 3.61073 -3.95057 3.49584
rclavicle -3.24019e-014 1.27222e-014
rhumerus -34.6208 5.02125 -87.1994
rradius 31.5643
rwrist -6.68813
rhand -21.1391 5.46108
rfingers 7.12502
rthumb 5.24005 -24.4541
lclavicle -3.24019e-014 1.27222e-014
lhumerus 31.0306 -44.9915 80.2099
lradius 130.184
lwrist 82.663
lhand -26.7951 25.0203
lfingers 7.12502
lthumb -0.222175 54.9999
rfemur -17.2078 5.4151 13.3022
rtibia 49.4696
rfoot -20.0922 0.0297776
rtoes 7.3503
lfemur -6.94404 11.6902 -24.2322
ltibia 28.4058
lfoot -16.858 6.49218
ltoes -7.75351
106
root 47.243 16.4377 -6.63677 -163.647 -83.8862 161.673
lowerback -0.950463 -2.02421 -5.49532
upperback 4.49843 -2.5722 -0.301435
thorax 5.43766 -1.54132 2.6067
lowerneck -4.9656 -6.07409 -9.91121
upperneck 7.34835 -8.00695 7.4771
head 3.70022 -3.94894 3.46539
rclavicle -3.94091e-014 2.78299e-015
rhumerus -34.7113 4.88674 -87.1199
rradius 31.4007
rwrist -6.57039
rhand -21.0957 5.45883
rfingers 7.12502
rthumb 5.28194 -24.4553
lclavicle -3.94091e-014 2.78299e-015
lhumerus 30.8056 -44.8607 80.1742
lradius 129.897
lwrist 81.7309
lhand -26.8373 24.1531
lfingers 7.12502
lthumb -0.262939 54.1326
rfemur -16.9463 5.40579 13.3777
rtibia 49.0317
rfoot -20.3168 0.154137
rtoes 7.6288
lfemur -7.01177 11.6384 -24.1447
ltibia 28.4827
lfoot -16.8938 6.50214
ltoes -7.83479
